<svg xmlns="http://www.w3.org/2000/svg" viewBox="0 0 800 500">
  <defs>
    <linearGradient id="bg" x1="0" y1="0" x2="0" y2="1"><stop offset="0%" stop-color="#1e293b"/><stop offset="100%" stop-color="#0f172a"/></linearGradient>
  </defs>
  <rect width="800" height="500" fill="url(#bg)"/>
  <!-- Chat window -->
  <rect x="150" y="40" width="500" height="420" rx="12" fill="#0f172a" stroke="#334155" stroke-width="2"/>
  <!-- User message (vague) -->
  <rect x="320" y="70" width="300" height="45" rx="12" fill="#10b981" opacity="0.3"/>
  <text x="470" y="98" font-family="monospace" font-size="11" fill="#10b981" text-anchor="middle">write a function that</text>
  <text x="470" y="100" font-family="monospace" font-size="11" fill="#10b981" text-anchor="middle" dy="8">processes the data</text>
  <!-- AI response (generic) -->
  <rect x="180" y="140" width="380" height="260" rx="12" fill="#334155" opacity="0.6"/>
  <rect x="200" y="160" width="100" height="5" rx="2" fill="#10b981" opacity="0.3"/>
  <rect x="200" y="174" width="340" height="4" rx="2" fill="#94a3b8" opacity="0.25"/>
  <rect x="200" y="186" width="300" height="4" rx="2" fill="#94a3b8" opacity="0.25"/>
  <rect x="200" y="198" width="320" height="4" rx="2" fill="#94a3b8" opacity="0.25"/>
  <rect x="200" y="218" width="340" height="4" rx="2" fill="#94a3b8" opacity="0.2"/>
  <rect x="200" y="230" width="280" height="4" rx="2" fill="#94a3b8" opacity="0.2"/>
  <rect x="200" y="242" width="310" height="4" rx="2" fill="#94a3b8" opacity="0.2"/>
  <rect x="200" y="254" width="340" height="4" rx="2" fill="#94a3b8" opacity="0.2"/>
  <rect x="200" y="266" width="260" height="4" rx="2" fill="#94a3b8" opacity="0.2"/>
  <!-- "Generic" stamp -->
  <rect x="300" y="310" width="140" height="40" rx="8" fill="none" stroke="#ef4444" stroke-width="2" opacity="0.5" transform="rotate(-15,370,330)"/>
  <text x="370" y="336" font-family="Arial" font-size="16" font-weight="bold" fill="#ef4444" text-anchor="middle" opacity="0.5" transform="rotate(-15,370,330)">GENERIC</text>
  <!-- Thumbs down -->
  <text x="590" y="430" font-family="Arial" font-size="28" fill="#ef4444" opacity="0.4">&#x1F44E;</text>
</svg>
