<svg xmlns="http://www.w3.org/2000/svg" viewBox="0 0 800 500">
  <defs>
    <linearGradient id="bg" x1="0" y1="0" x2="0" y2="1"><stop offset="0%" stop-color="#1e293b"/><stop offset="100%" stop-color="#0f172a"/></linearGradient>
  </defs>
  <rect width="800" height="500" fill="url(#bg)"/>
  <!-- Messy text on left -->
  <rect x="60" y="80" width="280" height="320" rx="8" fill="#0f172a" stroke="#334155" stroke-width="1.5"/>
  <g fill="#94a3b8" opacity="0.4" transform="rotate(-2,200,240)">
    <rect x="80" y="100" width="200" height="4" rx="2"/><rect x="80" y="115" width="160" height="4" rx="2"/>
    <rect x="100" y="130" width="180" height="4" rx="2"/><rect x="80" y="145" width="220" height="4" rx="2"/>
    <rect x="90" y="160" width="140" height="4" rx="2"/><rect x="80" y="175" width="200" height="4" rx="2"/>
  </g>
  <g fill="#94a3b8" opacity="0.3" transform="rotate(1,200,280)">
    <rect x="85" y="200" width="190" height="4" rx="2"/><rect x="80" y="215" width="210" height="4" rx="2"/>
    <rect x="95" y="230" width="170" height="4" rx="2"/><rect x="80" y="245" width="200" height="4" rx="2"/>
    <rect x="80" y="260" width="160" height="4" rx="2"/><rect x="90" y="275" width="190" height="4" rx="2"/>
  </g>
  <text x="200" y="370" font-family="Arial" font-size="11" fill="#94a3b8" text-anchor="middle" opacity="0.4">Unstructured text</text>
  <!-- Arrow -->
  <path d="M360 240 L440 240" stroke="#10b981" stroke-width="2" opacity="0.5"/>
  <polygon points="440,234 458,240 440,246" fill="#10b981" opacity="0.5"/>
  <!-- Clean table on right -->
  <rect x="480" y="100" width="260" height="280" rx="8" fill="#0f172a" stroke="#10b981" stroke-width="2"/>
  <!-- Header row -->
  <rect x="480" y="100" width="260" height="35" rx="8" fill="#10b981" opacity="0.2"/>
  <rect x="495" y="112" width="50" height="6" rx="2" fill="#10b981" opacity="0.6"/>
  <rect x="570" y="112" width="50" height="6" rx="2" fill="#10b981" opacity="0.6"/>
  <rect x="645" y="112" width="60" height="6" rx="2" fill="#10b981" opacity="0.6"/>
  <!-- Table rows -->
  <line x1="480" y1="135" x2="740" y2="135" stroke="#334155" stroke-width="1"/>
  <line x1="560" y1="100" x2="560" y2="380" stroke="#334155" stroke-width="1"/>
  <line x1="635" y1="100" x2="635" y2="380" stroke="#334155" stroke-width="1"/>
  <g fill="#94a3b8" opacity="0.4">
    <rect x="495" y="148" width="45" height="5" rx="2"/><rect x="575" y="148" width="40" height="5" rx="2"/><rect x="650" y="148" width="55" height="5" rx="2"/>
    <rect x="495" y="178" width="50" height="5" rx="2"/><rect x="575" y="178" width="35" height="5" rx="2"/><rect x="650" y="178" width="50" height="5" rx="2"/>
    <rect x="495" y="208" width="40" height="5" rx="2"/><rect x="575" y="208" width="45" height="5" rx="2"/><rect x="650" y="208" width="55" height="5" rx="2"/>
    <rect x="495" y="238" width="50" height="5" rx="2"/><rect x="575" y="238" width="40" height="5" rx="2"/><rect x="650" y="238" width="45" height="5" rx="2"/>
    <rect x="495" y="268" width="45" height="5" rx="2"/><rect x="575" y="268" width="50" height="5" rx="2"/><rect x="650" y="268" width="55" height="5" rx="2"/>
  </g>
  <line x1="480" y1="165" x2="740" y2="165" stroke="#334155" stroke-width="0.5" opacity="0.5"/>
  <line x1="480" y1="195" x2="740" y2="195" stroke="#334155" stroke-width="0.5" opacity="0.5"/>
  <line x1="480" y1="225" x2="740" y2="225" stroke="#334155" stroke-width="0.5" opacity="0.5"/>
  <line x1="480" y1="255" x2="740" y2="255" stroke="#334155" stroke-width="0.5" opacity="0.5"/>
</svg>
