<svg xmlns="http://www.w3.org/2000/svg" viewBox="0 0 800 500">
  <defs>
    <linearGradient id="bg" x1="0" y1="0" x2="0" y2="1"><stop offset="0%" stop-color="#1e293b"/><stop offset="100%" stop-color="#0f172a"/></linearGradient>
  </defs>
  <rect width="800" height="500" fill="url(#bg)"/>
  <!-- Code editor -->
  <rect x="120" y="50" width="560" height="380" rx="10" fill="#0f172a" stroke="#334155" stroke-width="2"/>
  <rect x="120" y="50" width="560" height="30" rx="10" fill="#334155"/>
  <circle cx="142" cy="65" r="5" fill="#ef4444" opacity="0.7"/><circle cx="160" cy="65" r="5" fill="#f59e0b" opacity="0.7"/><circle cx="178" cy="65" r="5" fill="#22c55e" opacity="0.7"/>
  <!-- Line numbers -->
  <g fill="#475569" opacity="0.4" font-family="monospace" font-size="12">
    <text x="145" y="108">1</text><text x="145" y="128">2</text><text x="145" y="148">3</text>
    <text x="145" y="168">4</text><text x="145" y="188">5</text><text x="145" y="208">6</text>
    <text x="145" y="228">7</text><text x="145" y="248">8</text><text x="145" y="268">9</text>
    <text x="140" y="288">10</text><text x="140" y="308">11</text><text x="140" y="328">12</text>
  </g>
  <!-- Code lines -->
  <rect x="170" y="100" width="100" height="5" rx="2" fill="#10b981" opacity="0.5"/>
  <rect x="170" y="120" width="200" height="5" rx="2" fill="#94a3b8" opacity="0.3"/>
  <rect x="190" y="140" width="180" height="5" rx="2" fill="#94a3b8" opacity="0.3"/>
  <rect x="190" y="160" width="220" height="5" rx="2" fill="#94a3b8" opacity="0.3"/>
  <rect x="190" y="180" width="160" height="5" rx="2" fill="#94a3b8" opacity="0.3"/>
  <rect x="170" y="200" width="120" height="5" rx="2" fill="#10b981" opacity="0.5"/>
  <rect x="190" y="220" width="240" height="5" rx="2" fill="#94a3b8" opacity="0.3"/>
  <!-- Bug line highlighted -->
  <rect x="165" y="235" width="500" height="22" rx="3" fill="#ef4444" opacity="0.1"/>
  <rect x="190" y="240" width="280" height="5" rx="2" fill="#ef4444" opacity="0.6"/>
  <rect x="190" y="260" width="200" height="5" rx="2" fill="#94a3b8" opacity="0.3"/>
  <rect x="170" y="280" width="140" height="5" rx="2" fill="#94a3b8" opacity="0.3"/>
  <rect x="190" y="300" width="180" height="5" rx="2" fill="#94a3b8" opacity="0.3"/>
  <rect x="170" y="320" width="80" height="5" rx="2" fill="#10b981" opacity="0.5"/>
  <!-- Bug icon -->
  <circle cx="650" cy="246" r="20" fill="#ef4444" opacity="0.15"/>
  <text x="650" y="252" font-family="Arial" font-size="18" fill="#ef4444" text-anchor="middle" opacity="0.8">BUG</text>
  <!-- Error message at bottom -->
  <rect x="120" y="400" width="560" height="30" fill="#ef4444" opacity="0.1"/>
  <rect x="140" y="410" width="300" height="5" rx="2" fill="#ef4444" opacity="0.4"/>
</svg>
