<svg xmlns="http://www.w3.org/2000/svg" viewBox="0 0 800 500">
  <defs>
    <linearGradient id="bg" x1="0" y1="0" x2="0" y2="1"><stop offset="0%" stop-color="#1e293b"/><stop offset="100%" stop-color="#0f172a"/></linearGradient>
  </defs>
  <rect width="800" height="500" fill="url(#bg)"/>
  <!-- Big document -->
  <rect x="100" y="50" width="200" height="380" rx="5" fill="#334155" stroke="#f59e0b" stroke-width="2"/>
  <g fill="#f59e0b" opacity="0.3">
    <rect x="120" y="70" width="160" height="4" rx="2"/><rect x="120" y="82" width="140" height="4" rx="2"/>
    <rect x="120" y="94" width="150" height="4" rx="2"/><rect x="120" y="106" width="130" height="4" rx="2"/>
    <rect x="120" y="118" width="160" height="4" rx="2"/><rect x="120" y="130" width="120" height="4" rx="2"/>
    <rect x="120" y="142" width="150" height="4" rx="2"/><rect x="120" y="154" width="140" height="4" rx="2"/>
    <rect x="120" y="166" width="130" height="4" rx="2"/><rect x="120" y="178" width="160" height="4" rx="2"/>
    <rect x="120" y="190" width="140" height="4" rx="2"/><rect x="120" y="202" width="150" height="4" rx="2"/>
    <rect x="120" y="214" width="120" height="4" rx="2"/><rect x="120" y="226" width="160" height="4" rx="2"/>
    <rect x="120" y="238" width="130" height="4" rx="2"/><rect x="120" y="250" width="150" height="4" rx="2"/>
    <rect x="120" y="262" width="140" height="4" rx="2"/><rect x="120" y="274" width="160" height="4" rx="2"/>
  </g>
  <text x="200" y="420" font-family="Arial" font-size="12" fill="#f59e0b" text-anchor="middle" opacity="0.5">50 pages</text>
  <!-- Funnel/compress arrows -->
  <path d="M320 180 L400 210 M320 220 L400 230 M320 260 L400 250 M320 300 L400 260" stroke="#f59e0b" stroke-width="1.5" opacity="0.4"/>
  <polygon points="400,200 420,235 400,270" fill="#f59e0b" opacity="0.2"/>
  <!-- Small summary -->
  <rect x="480" y="160" width="200" height="160" rx="8" fill="#334155" stroke="#f59e0b" stroke-width="2"/>
  <rect x="500" y="180" width="160" height="6" rx="3" fill="#f59e0b" opacity="0.6"/>
  <rect x="500" y="196" width="140" height="5" rx="2" fill="#f59e0b" opacity="0.4"/>
  <rect x="500" y="210" width="150" height="5" rx="2" fill="#f59e0b" opacity="0.4"/>
  <rect x="500" y="224" width="130" height="5" rx="2" fill="#f59e0b" opacity="0.4"/>
  <rect x="500" y="238" width="160" height="5" rx="2" fill="#f59e0b" opacity="0.4"/>
  <rect x="500" y="252" width="110" height="5" rx="2" fill="#f59e0b" opacity="0.4"/>
  <text x="580" y="305" font-family="Arial" font-size="12" fill="#f59e0b" text-anchor="middle" opacity="0.5">Summary</text>
  <!-- AI sparkle -->
  <circle cx="440" cy="230" r="20" fill="#f59e0b" opacity="0.1"/>
  <text x="440" y="236" font-family="Arial" font-size="16" fill="#f59e0b" text-anchor="middle" opacity="0.6">AI</text>
</svg>
